PathFileType	4	(X/Y/Z)	C:\Users\WrightLab\Desktop\Jo\P4V136.trc
DataRate	CameraRate	NumFrames	NumMarkers	Units	OrigDataRate	OrigDataStartFrame	OrigNumFrames
100.00	100.00	       19	19	mm	100.00	142	       565
Frame#	Time	Headset_Front			Headset_Back			Headset_Left			Headset_Right			Left_Shoulder			Right_Shoulder			Sternum			C7			Left Elbow			Right Elbow			Left Wrist			Right Wrist			Left ASIS			Right ASIS			S2			Left Knee			Right Knee			Left Ankle			Right Ankle			
		X1	Y1	Z1	X2	Y2	Z2	X3	Y3	Z3	X4	Y4	Z4	X5	Y5	Z5	X6	Y6	Z6	X7	Y7	Z7	X8	Y8	Z8	X9	Y9	Z9	X10	Y10	Z10	X11	Y11	Z11	X12	Y12	Z12	X13	Y13	Z13	X14	Y14	Z14	X15	Y15	Z15	X16	Y16	Z16	X17	Y17	Z17	X18	Y18	Z18	X19	Y19	Z19	

142	1.410	-414.05365	1684.96045	-570.48096	-629.45483	1700.53040	-493.44736							-387.86032	1491.81921	-568.24286	-684.21448	1501.05493	-629.62360	-524.83624	1736.84814	-699.75208	-528.17548	1523.56958	-654.96893	-253.49203	1139.67346	-559.78571	-829.88739	1156.80225	-590.60248	-306.46359	848.93066	-458.17917	-807.44598	960.22137	-357.94235	-429.64731	992.30701	-472.74802	-755.31555	1008.25299	-549.80963	-519.96448	1022.17285	-687.34894	-500.41202	522.79144	-395.57401	-807.59729	528.07422	-610.10114	-623.12665	41.04757	-451.31052				
143	1.420	-414.09647	1686.78113	-560.92175	-629.14819	1703.13989	-482.83932							-387.80963	1493.78650	-561.23260	-684.78229	1502.91052	-618.85095	-525.26721	1739.00989	-689.51483	-529.30396	1525.87915	-645.71130	-253.30777	1142.32495	-548.77075	-831.07056	1158.98499	-579.54694	-307.32120	851.57465	-446.24872	-808.46332	959.41644	-348.93430	-428.91641	993.71112	-463.64584	-754.79785	1011.21210	-536.92896	-520.79205	1023.91901	-677.38037	-501.81970	522.36530	-392.15958	-812.22449	530.45367	-586.05762	-621.79419	40.96905	-452.15732				
144	1.430	-414.20459	1688.69592	-551.88556										-389.55338	1495.89172	-551.89282	-686.25500	1505.08142	-608.62598	-525.89270	1741.46997	-679.15442	-530.47748	1527.93848	-635.48645	-254.54300	1143.61877	-537.78033	-832.20239	1161.10938	-568.34906	-308.14343	854.05573	-433.81873	-810.24219	957.46533	-341.79202	-427.38614	994.75616	-454.48181	-754.67065	1014.47620	-524.75824				-502.14621	522.36383	-389.15100	-816.54877	533.95740	-562.30133	-622.37640	41.43416	-451.60541				
145	1.440	-414.29947	1690.45227	-543.00494	-548.63800	1447.43457	-454.88123							-389.45773	1497.97693	-544.43536	-687.02179	1506.84180	-598.02795	-526.41821	1744.09143	-669.85895	-531.82330	1530.01563	-626.43024	-255.30679	1145.70081	-527.47583	-833.40460	1163.31885	-557.17157	-308.53622	857.28552	-420.34067	-811.93884	956.91956	-332.69186	-425.58844	995.95984	-444.32294	-754.47131	1017.92401	-510.98102				-500.18628	523.04419	-384.32928	-819.97272	537.66486	-539.05505	-622.22986	42.74220	-450.71524				
146	1.450	-414.50879	1691.85449	-533.74597	-550.46307	1449.08728	-449.57339							-391.11420	1500.21533	-534.50513	-688.23090	1509.11389	-588.14966	-527.19708	1746.42676	-659.87390	-533.15515	1531.94690	-616.96832	-255.44791	1148.89331	-517.90021	-834.88611	1165.77808	-547.13538	-309.18243	861.25653	-408.11154	-814.21362	955.57288	-325.84311	-424.02316	996.69800	-435.54861	-751.74475	1020.62012	-499.84314	-522.77710	1030.19812	-647.69672	-500.48581	523.32220	-381.59784	-822.67865	542.35901	-516.18323	-622.37640	41.43416	-451.60541				
147	1.460	-414.82101	1693.60254	-524.57275	-549.08856	1451.96960	-436.89468							-391.20514	1502.21448	-527.61517	-689.61926	1510.93335	-577.77777	-527.99774	1748.64417	-650.01678	-534.56976	1534.05762	-608.01910	-255.92049	1151.07324	-508.11050	-836.47430	1167.77161	-536.62183	-309.85333	864.77106	-394.63086	-815.80292	955.06036	-317.69165	-422.00934	998.21375	-426.32358	-752.43225	1025.22632	-485.06595				-499.89621	522.15918	-378.18900	-824.79254	546.25476	-491.87344	-621.98090	41.58153	-450.73639				
148	1.470	-415.10529	1694.69214	-515.48035	-548.29663	1453.74097	-427.05313							-392.72052	1503.82349	-515.48169	-690.70245	1512.85059	-567.51154				-536.23602	1536.03723	-598.93597	-256.73203	1153.41431	-497.25266	-838.02405	1169.57629	-526.82886	-310.32159	868.74371	-381.48480	-818.31628	954.39630	-311.17538	-420.63232	999.74377	-418.08624	-748.48364	1026.63635	-475.93100				-498.62933	521.31189	-374.39334	-827.00977	551.71338	-469.46326	-622.37640	41.43416	-451.60541	-674.68744	262.19287	-838.81458	
149	1.480				-546.86707	1455.17310	-417.49973							-392.95782	1506.57605	-510.39069	-691.90558	1514.37952	-556.96039				-537.88037	1537.67542	-589.17743	-258.01288	1156.05603	-488.30762	-839.40936	1171.07349	-517.10150	-311.04916	872.64996	-367.98215	-820.76123	952.56659	-304.18527	-418.51965	1000.75403	-410.97925	-748.31055	1030.33862	-460.20215				-497.32162	521.17566	-370.51395	-828.19562	555.96930	-445.90628	-621.60852	41.41894	-450.27396	-684.58087	262.56326	-817.84485	
150	1.490	-629.09399	1718.46692	-412.69116	-549.08643	1458.06885	-409.13171							-393.86292	1508.78589	-498.88101	-693.00977	1515.84973	-546.99402				-539.12445	1539.83240	-580.47150	-257.78635	1158.42395	-478.61938	-840.72198	1172.34875	-507.65561	-311.14310	876.44507	-354.17853	-822.17590	951.86206	-296.11658	-415.98618	1001.70081	-401.73947	-745.30475	1033.18323	-447.87460				-497.09531	521.31177	-367.95657	-830.31097	561.15503	-422.82645	-621.60852	41.41894	-450.27396	-694.52216	261.41452	-795.96454	
151	1.500				-548.36407	1459.48328	-400.02908							-394.51169	1510.47778	-492.71695	-694.14539	1517.11609	-536.55402				-541.20532	1541.14856	-571.71161	-258.84525	1160.82300	-469.52377	-841.86975	1173.37317	-498.60806	-311.69122	880.14685	-339.83035	-824.96344	949.99335	-288.97681	-414.24084	1002.77991	-395.74371	-744.07904	1035.01270	-438.07309				-495.34036	521.58075	-364.41812	-829.95221	565.72632	-400.11194	-622.34979	41.30821	-449.97110	-705.00256	259.20435	-771.99823	
152	1.510				-546.19897	1460.82385	-388.73013							-395.54700	1512.45813	-486.83618	-694.91211	1518.15210	-526.19031				-542.48212	1542.61353	-562.83789	-259.04587	1163.41455	-459.65875	-843.02795	1174.30408	-488.66159	-312.40903	884.54236	-325.79935	-827.80829	948.32935	-283.14014	-411.29459	1003.98987	-386.54425	-742.04218	1038.85522	-424.62189				-493.22235	521.22858	-362.56906	-829.70593	569.65631	-377.64117	-622.61737	41.07707	-450.23727	-715.51147	256.79654	-748.61578	
153	1.520				-545.88574	1462.15771	-379.56860							-396.20496	1514.40833	-476.21930	-696.15387	1519.42664	-515.92365				-543.56146	1543.96521	-553.43658	-259.13641	1165.16309	-450.33072	-844.13123	1174.98242	-479.90210	-312.33545	888.87091	-312.16956	-829.34961	946.93018	-276.05661	-409.08990	1004.88348	-380.86179	-740.81372	1041.50171	-407.88129				-492.33743	520.82709	-360.00250	-828.85809	574.31610	-355.72821	-622.54767	41.12683	-450.22702	-725.96417	251.66455	-723.13300	
154	1.530	-629.66681	1724.00110	-373.73141	-545.72156	1463.64465	-370.90320							-396.27789	1515.85571	-473.84824	-696.67816	1519.78687	-504.69214				-544.69037	1544.50928	-544.07794	-259.79950	1166.47778	-441.06772	-846.50592	1176.55713	-470.90799	-312.78207	892.99957	-298.20825	-832.39136	945.19318	-268.36462	-407.86121	1004.11658	-375.24402	-738.58331	1042.49768	-398.52640				-490.43875	521.48889	-357.81323	-826.87738	578.16895	-334.25671	-622.51007	41.33230	-449.89462	-736.28021	247.52567	-698.96460	
155	1.540				-545.31464	1464.83850	-362.44833							-397.00983	1517.40588	-467.25769	-697.44611	1520.36963	-494.53189				-546.19537	1545.65234	-535.43311	-259.12640	1168.41907	-432.33466	-846.77301	1176.41943	-461.34702	-313.34488	897.18011	-284.30200	-835.59259	944.42151	-262.35202	-404.67944	1004.77106	-368.79385	-736.15552	1042.99097	-387.84531				-488.82477	521.14392	-355.68616	-825.27765	581.75293	-312.94714	-622.09869	41.83580	-450.34161	-746.74146	240.92648	-670.83740	
156	1.550	-630.11957	1724.99683	-354.84366	-543.59760	1465.22754	-352.86505							-396.68829	1519.05518	-455.63037	-698.37769	1520.74353	-483.97208				-547.73895	1546.28027	-527.23804	-259.35910	1169.68042	-423.52405	-847.76270	1176.73108	-452.46310	-313.62219	901.26917	-269.67923	-837.66241	941.57367	-255.48251	-403.57544	1004.74084	-363.33752	-734.28461	1043.41650	-373.62134				-487.63046	521.29883	-353.66104	-822.74640	584.81122	-292.10373	-622.14136	42.13379	-450.28226	-756.51428	234.26735	-644.42291	
157	1.560	-630.01959	1725.85217	-345.52567	-544.19012	1466.00342	-344.72549							-397.02121	1519.71387	-448.00256	-699.24390	1521.13379	-473.63583				-548.52850	1546.82397	-517.82806	-259.29059	1170.97327	-413.74817	-848.98193	1177.05945	-443.32727	-313.64603	905.15472	-255.90115	-840.18475	939.99115	-247.87334	-400.35770	1005.64447	-355.89410	-732.92542	1045.49304	-361.83014				-486.15390	521.22076	-351.67062	-819.87408	587.37854	-270.89572	-622.06030	42.11040	-449.73193	-766.63452	226.73474	-614.77716	
158	1.570	-630.59497	1725.90112	-336.38889	-542.60059	1465.71143	-334.79803							-397.56491	1519.95996	-441.06204	-699.35675	1521.19324	-463.14844				-549.20569	1547.33997	-508.58270	-259.38660	1171.48242	-405.17511	-849.71844	1177.34900	-433.43210	-313.86774	908.95325	-242.00728	-842.16797	937.70868	-241.62172	-399.99921	1003.96356	-351.98557	-731.20575	1046.32275	-346.85129				-484.76184	521.16339	-350.22278	-816.23694	590.72870	-251.52988	-622.08582	42.36634	-449.24841	-775.37915	218.52893	-587.39636	
159	1.580				-542.71155	1466.21448	-326.53278							-398.10788	1519.87781	-434.10602	-699.83295	1521.05273	-452.36682				-550.14746	1547.48328	-499.01663	-259.02539	1172.14453	-396.80725	-850.21875	1177.30188	-424.19659	-314.26013	913.15704	-228.56241	-844.37695	935.58167	-235.43875	-397.18271	1004.33197	-344.30298	-729.26398	1046.49219	-333.48279				-483.77444	520.85571	-348.16666	-811.92090	593.65430	-232.20808	-622.08307	42.41786	-449.21219	-785.08734	209.77316	-556.54260	
160	1.590				-540.65100	1465.87500	-316.97934							-397.42844	1520.08972	-425.22278	-699.85132	1521.12720	-441.44913				-550.70844	1547.69580	-489.93188	-257.50754	1173.09290	-387.32401	-850.82397	1177.05554	-413.83630	-314.30359	916.92297	-214.26378	-846.59888	933.18390	-229.14851	-395.65082	1004.01672	-338.55087	-727.36884	1046.28296	-323.62500				-483.38693	520.45142	-346.63965	-807.14032	595.89221	-213.20587	-622.12488	42.45636	-449.16891	-792.35950	201.53285	-527.56610	
